<svg width="734" height="640" viewBox="0 0 734 640" fill="none" xmlns="http://www.w3.org/2000/svg" xmlns:xlink="http://www.w3.org/1999/xlink">
<rect width="734" height="640" fill="url(#pattern0)"/>
<defs>
<pattern id="pattern0" patternContentUnits="objectBoundingBox" width="1" height="1">
<use xlink:href="#image0" transform="translate(-0.00408719) scale(0.0013624 0.0015625)"/>
</pattern>
<image id="image0" width="740" height="640" xlink:href="./home.png"/>
</defs>
<path d="M222 535L442.8 543L512 529.3V551L443.5 570.7L222 559.7V535Z" fill="#3595F6" fill-opacity="0.75"/>
<path d="M223 534V509L443.3 512.3L513 509V529L443.7 542L223 534Z" fill="#3595F6" fill-opacity="0.75"/>
<path d="M223 508V483H444H513V506L445 513L223 508Z" fill="#3595F6" fill-opacity="0.75"/>
<path d="M223 484V459L444.3 455.3L512 462V484H444" fill="#3595F6" fill-opacity="0.75"/>
<path d="M223 458V432L444.5 428.7L513 439.7V461L444 454.3L223 458Z" fill="#3595F6" fill-opacity="0.75"/>
<path d="M222 431V407.3L443 395L514 418V439.3L443 427L222 431Z" fill="#3595F6" fill-opacity="0.75"/>
<path d="M222 409V384L444.2 367.7L514 396.3V417L443.7 395.3L222 409Z" fill="#3595F6" fill-opacity="0.75"/>
<path d="M222 384V359L444.5 338.7L514 375.3V396L442 367.3L222 384Z" fill="#3595F6" fill-opacity="0.75"/>
<path d="M222 358V334L445 309.3L514 353.3V375L444.7 337L222 358Z" fill="#3595F6" fill-opacity="0.75"/>
<path d="M222 333V309L444.5 280.3L514 331.3V352L443.7 309.7L222 333Z" fill="#3595F6" fill-opacity="0.75"/>
<path d="M221 309V285L443.3 252L514 311.3V331L444 280.3L221 309Z" fill="#3595F6" fill-opacity="0.75"/>
<path d="M222 284V260L443.2 225L513 289V310L444.3 251.7L222 284Z" fill="#3595F6" fill-opacity="0.75"/>
<path d="M222 260V235L444.3 197L513 267.3V288L444 224L222 260Z" fill="#3595F6" fill-opacity="0.75"/>
<path d="M222 234V209L442.8 165.3L513 244.3V267L444 193.7L222 234Z" fill="#3595F6" fill-opacity="0.75"/>
<path d="M223 210V185L443 137L513 222V245L442.3 165.7L223 210Z" fill="#3595F6" fill-opacity="0.75"/>
<path d="M222 185V160L441.8 108L513 200.3V223L443.3 136.7L222 185Z" fill="#3595F6" fill-opacity="0.75"/>
<path d="M222 160V134L444 77.3L513 179V200L443.7 108.3L222 160Z" fill="#3595F6" fill-opacity="0.75"/>

</svg>
